<?xml version="1.0" encoding="UTF-8" standalone="no"?><!-- Generator: Gravit.io --><svg xmlns="http://www.w3.org/2000/svg" xmlns:xlink="http://www.w3.org/1999/xlink" style="isolation:isolate" viewBox="404 224 259.677 233" width="259.677pt" height="233pt"><line x1="443" y1="428.5" x2="651.333" y2="428.5" vector-effect="non-scaling-stroke" stroke-width="2" stroke="rgb(46,46,46)" stroke-linejoin="miter" stroke-linecap="square" stroke-miterlimit="3"/><path d=" M 653.333 432.672 L 661.677 428.5 L 653.333 424.328 Z " fill="none" stroke="rgb(46,46,46)" stroke-width="2"/><line x1="443" y1="428.5" x2="443" y2="240" vector-effect="non-scaling-stroke" stroke-width="2" stroke="rgb(46,46,46)" stroke-linejoin="miter" stroke-linecap="square" stroke-miterlimit="3"/><path d=" M 447.172 238 L 443 229.656 L 438.828 238 Z " fill="none" stroke="rgb(46,46,46)" stroke-width="2"/><line x1="486" y1="396" x2="486" y2="364" vector-effect="non-scaling-stroke" stroke-width="3" stroke="rgb(74,134,232)" stroke-linejoin="miter" stroke-linecap="square" stroke-miterlimit="3"/><line x1="486" y1="364" x2="529" y2="364" vector-effect="non-scaling-stroke" stroke-width="3" stroke="rgb(255,153,0)" stroke-linejoin="miter" stroke-linecap="square" stroke-miterlimit="3"/><line x1="529" y1="364" x2="529" y2="332" vector-effect="non-scaling-stroke" stroke-width="3" stroke="rgb(74,134,232)" stroke-linejoin="miter" stroke-linecap="square" stroke-miterlimit="3"/><line x1="529" y1="332" x2="572" y2="332" vector-effect="non-scaling-stroke" stroke-width="3" stroke="rgb(255,153,0)" stroke-linejoin="miter" stroke-linecap="square" stroke-miterlimit="3"/><line x1="572" y1="332" x2="572" y2="300" vector-effect="non-scaling-stroke" stroke-width="3" stroke="rgb(74,134,232)" stroke-linejoin="miter" stroke-linecap="square" stroke-miterlimit="3"/><line x1="572" y1="300" x2="615" y2="300" vector-effect="non-scaling-stroke" stroke-width="3" stroke="rgb(255,153,0)" stroke-linejoin="miter" stroke-linecap="square" stroke-miterlimit="3"/><line x1="615" y1="300" x2="615" y2="268" vector-effect="non-scaling-stroke" stroke-width="3" stroke="rgb(74,134,232)" stroke-linejoin="miter" stroke-linecap="square" stroke-miterlimit="3"/><path d=" M 617.695 441.391 L 617.695 442.563 L 614.797 442.563 L 614.797 447.742 L 614.797 447.742 Q 614.797 448.781 615.617 448.781 L 615.617 448.781 L 615.617 448.781 Q 615.953 448.781 616.336 448.578 L 616.336 448.578 L 616.664 449.594 L 616.664 449.594 Q 616.07 450 615.242 450 L 615.242 450 L 615.242 450 Q 614.266 450 613.809 449.426 L 613.809 449.426 L 613.809 449.426 Q 613.352 448.852 613.344 447.711 L 613.344 447.711 L 613.344 442.563 L 610.633 442.563 L 610.633 441.391 L 617.695 441.391 L 617.695 441.391 Z " fill="rgb(0,0,0)"/><path d=" M 500.242 449.844 L 505.047 438.469 L 506.375 438.469 L 510.898 449.844 L 500.242 449.844 L 500.242 449.844 Z  M 505.688 440.305 L 502.289 448.617 L 508.883 448.617 L 505.688 440.305 L 505.688 440.305 Z  M 512.609 439.344 L 514.055 439.344 L 514.055 441.391 L 515.633 441.391 L 515.633 442.508 L 514.055 442.508 L 514.055 447.75 L 514.055 447.75 Q 514.055 448.258 514.266 448.512 L 514.266 448.512 L 514.266 448.512 Q 514.477 448.766 514.984 448.766 L 514.984 448.766 L 514.984 448.766 Q 515.234 448.766 515.672 448.672 L 515.672 448.672 L 515.672 449.844 L 515.672 449.844 Q 515.102 450 514.563 450 L 514.563 450 L 514.563 450 Q 513.594 450 513.102 449.414 L 513.102 449.414 L 513.102 449.414 Q 512.609 448.828 512.609 447.75 L 512.609 447.75 L 512.609 442.508 L 511.07 442.508 L 511.07 441.391 L 512.609 441.391 L 512.609 439.344 L 512.609 439.344 Z " fill="rgb(0,0,0)"/><path d=" M 420.405 321.844 L 425.21 310.469 L 426.538 310.469 L 431.061 321.844 L 420.405 321.844 L 420.405 321.844 Z  M 425.85 312.305 L 422.452 320.617 L 429.046 320.617 L 425.85 312.305 L 425.85 312.305 Z  M 433.202 309.984 L 433.202 309.984 L 433.202 309.984 Q 433.967 309.984 434.436 310.297 L 434.436 310.297 L 434.436 310.297 Q 434.905 310.609 435.163 311.352 L 435.163 311.352 L 438.499 320.016 L 438.499 320.016 Q 438.655 320.414 438.831 320.566 L 438.831 320.566 L 438.831 320.566 Q 439.007 320.719 439.28 320.719 L 439.28 320.719 L 439.577 320.695 L 439.624 321.883 L 439.624 321.883 Q 439.342 321.977 439.014 321.977 L 439.014 321.977 L 439.014 321.977 Q 438.413 321.977 438.108 321.832 L 438.108 321.832 L 438.108 321.832 Q 437.803 321.688 437.561 321.352 L 437.561 321.352 L 437.561 321.352 Q 437.319 321.016 437.092 320.391 L 437.092 320.391 L 435.296 315.758 L 433.061 321.844 L 431.452 321.844 L 434.53 313.805 L 433.78 311.969 L 433.78 311.969 Q 433.6 311.531 433.393 311.352 L 433.393 311.352 L 433.393 311.352 Q 433.186 311.172 432.835 311.172 L 432.835 311.172 L 432.467 311.188 L 432.46 310.078 L 432.46 310.078 Q 432.788 309.984 433.202 309.984 Z " fill="rgb(0,0,0)"/><path d=" M 656.144 440.793 L 657.77 440.793 L 657.77 443.096 L 659.545 443.096 L 659.545 444.353 L 657.77 444.353 L 657.77 450.25 L 657.77 450.25 Q 657.77 450.821 658.007 451.107 L 658.007 451.107 L 658.007 451.107 Q 658.244 451.393 658.816 451.393 L 658.816 451.393 L 658.816 451.393 Q 659.097 451.393 659.589 451.287 L 659.589 451.287 L 659.589 452.605 L 659.589 452.605 Q 658.948 452.781 658.341 452.781 L 658.341 452.781 L 658.341 452.781 Q 657.251 452.781 656.698 452.122 L 656.698 452.122 L 656.698 452.122 Q 656.144 451.463 656.144 450.25 L 656.144 450.25 L 656.144 444.353 L 654.412 444.353 L 654.412 443.096 L 656.144 443.096 L 656.144 440.793 L 656.144 440.793 Z " fill="rgb(0,0,0)"/><path d=" M 415.169 235.505 L 415.169 235.505 L 415.169 235.505 Q 415.169 233.519 415.701 231.69 L 415.701 231.69 L 415.701 231.69 Q 416.232 229.862 417.287 228.368 L 417.287 228.368 L 417.287 228.368 Q 418.342 226.874 419.476 226.259 L 419.476 226.259 L 419.81 227.331 L 419.81 227.331 Q 418.526 228.315 417.705 230.337 L 417.705 230.337 L 417.705 230.337 Q 416.883 232.358 416.804 234.863 L 416.804 234.863 L 416.795 235.61 L 416.795 235.61 Q 416.795 239.003 418.034 241.499 L 418.034 241.499 L 418.034 241.499 Q 418.781 242.993 419.81 243.837 L 419.81 243.837 L 419.476 244.83 L 419.476 244.83 Q 418.307 244.18 417.243 242.65 L 417.243 242.65 L 417.243 242.65 Q 415.169 239.662 415.169 235.505 Z  M 421.963 228.887 L 423.589 228.887 L 423.589 231.189 L 425.364 231.189 L 425.364 232.446 L 423.589 232.446 L 423.589 238.344 L 423.589 238.344 Q 423.589 238.915 423.826 239.201 L 423.826 239.201 L 423.826 239.201 Q 424.063 239.486 424.635 239.486 L 424.635 239.486 L 424.635 239.486 Q 424.916 239.486 425.408 239.381 L 425.408 239.381 L 425.408 240.699 L 425.408 240.699 Q 424.767 240.875 424.16 240.875 L 424.16 240.875 L 424.16 240.875 Q 423.07 240.875 422.517 240.216 L 422.517 240.216 L 422.517 240.216 Q 421.963 239.557 421.963 238.344 L 421.963 238.344 L 421.963 232.446 L 420.231 232.446 L 420.231 231.189 L 421.963 231.189 L 421.963 228.887 L 421.963 228.887 Z  M 431.016 235.593 L 431.016 235.593 L 431.016 235.593 Q 431.016 237.553 430.501 239.35 L 430.501 239.35 L 430.501 239.35 Q 429.987 241.147 428.928 242.668 L 428.928 242.668 L 428.928 242.668 Q 427.869 244.188 426.709 244.83 L 426.709 244.83 L 426.366 243.837 L 426.366 243.837 Q 427.72 242.8 428.542 240.616 L 428.542 240.616 L 428.542 240.616 Q 429.363 238.432 429.381 235.769 L 429.381 235.769 L 429.381 235.487 L 429.381 235.487 Q 429.381 233.642 428.994 232.055 L 428.994 232.055 L 428.994 232.055 Q 428.607 230.469 427.917 229.212 L 427.917 229.212 L 427.917 229.212 Q 427.228 227.955 426.366 227.252 L 426.366 227.252 L 426.709 226.259 L 426.709 226.259 Q 427.869 226.9 428.919 228.403 L 428.919 228.403 L 428.919 228.403 Q 429.97 229.906 430.493 231.717 L 430.493 231.717 L 430.493 231.717 Q 431.016 233.527 431.016 235.593 Z  M 406.294 227.357 L 406.294 227.357 L 406.294 227.357 Q 407.155 227.357 407.683 227.709 L 407.683 227.709 L 407.683 227.709 Q 408.21 228.061 408.5 228.896 L 408.5 228.896 L 412.253 238.643 L 412.253 238.643 Q 412.429 239.091 412.626 239.262 L 412.626 239.262 L 412.626 239.262 Q 412.824 239.434 413.132 239.434 L 413.132 239.434 L 413.466 239.407 L 413.519 240.743 L 413.519 240.743 Q 413.202 240.849 412.833 240.849 L 412.833 240.849 L 412.833 240.849 Q 412.156 240.849 411.813 240.686 L 411.813 240.686 L 411.813 240.686 Q 411.471 240.523 411.198 240.146 L 411.198 240.146 L 411.198 240.146 Q 410.926 239.768 410.671 239.064 L 410.671 239.064 L 408.649 233.853 L 406.136 240.699 L 404.325 240.699 L 407.788 231.655 L 406.944 229.59 L 406.944 229.59 Q 406.742 229.098 406.509 228.896 L 406.509 228.896 L 406.509 228.896 Q 406.276 228.693 405.881 228.693 L 405.881 228.693 L 405.468 228.711 L 405.459 227.463 L 405.459 227.463 Q 405.828 227.357 406.294 227.357 Z " fill="rgb(0,0,0)"/><g><line x1="486" y1="421.5" x2="486" y2="434.5" vector-effect="non-scaling-stroke" stroke-width="1" stroke="rgb(0,0,0)" stroke-linejoin="miter" stroke-linecap="square" stroke-miterlimit="3"/><line x1="529" y1="421.5" x2="529" y2="434.5" vector-effect="non-scaling-stroke" stroke-width="1" stroke="rgb(0,0,0)" stroke-linejoin="miter" stroke-linecap="square" stroke-miterlimit="3"/><line x1="572" y1="422" x2="572" y2="435" vector-effect="non-scaling-stroke" stroke-width="1" stroke="rgb(0,0,0)" stroke-linejoin="miter" stroke-linecap="square" stroke-miterlimit="3"/><line x1="615" y1="422" x2="615" y2="435" vector-effect="non-scaling-stroke" stroke-width="1" stroke="rgb(0,0,0)" stroke-linejoin="miter" stroke-linecap="square" stroke-miterlimit="3"/></g><g><line x1="438.163" y1="396" x2="447.837" y2="396" vector-effect="non-scaling-stroke" stroke-width="1" stroke="rgb(0,0,0)" stroke-linejoin="miter" stroke-linecap="square" stroke-miterlimit="3"/><line x1="438.163" y1="364" x2="447.837" y2="364" vector-effect="non-scaling-stroke" stroke-width="1" stroke="rgb(0,0,0)" stroke-linejoin="miter" stroke-linecap="square" stroke-miterlimit="3"/><line x1="438.163" y1="332" x2="447.837" y2="332" vector-effect="non-scaling-stroke" stroke-width="1" stroke="rgb(0,0,0)" stroke-linejoin="miter" stroke-linecap="square" stroke-miterlimit="3"/><line x1="438.163" y1="300" x2="447.837" y2="300" vector-effect="non-scaling-stroke" stroke-width="1" stroke="rgb(0,0,0)" stroke-linejoin="miter" stroke-linecap="square" stroke-miterlimit="3"/><line x1="438.163" y1="268" x2="447.837" y2="268" vector-effect="non-scaling-stroke" stroke-width="1" stroke="rgb(0,0,0)" stroke-linejoin="miter" stroke-linecap="square" stroke-miterlimit="3"/></g><line x1="443" y1="428" x2="443" y2="396" vector-effect="non-scaling-stroke" stroke-width="3" stroke="rgb(74,134,232)" stroke-linejoin="miter" stroke-linecap="square" stroke-miterlimit="3"/><line x1="443" y1="396" x2="486" y2="396" vector-effect="non-scaling-stroke" stroke-width="3" stroke="rgb(255,153,0)" stroke-linejoin="miter" stroke-linecap="square" stroke-miterlimit="3"/></svg>