<?xml version="1.0" encoding="UTF-8" standalone="no"?><!-- Generator: Gravit.io --><svg xmlns="http://www.w3.org/2000/svg" xmlns:xlink="http://www.w3.org/1999/xlink" style="isolation:isolate" viewBox="399.75 438 512 278" width="512pt" height="278pt"><line x1="615.25" y1="673.5" x2="682.25" y2="673.5" vector-effect="non-scaling-stroke" stroke-width="2" stroke="rgb(46,46,46)" stroke-linejoin="miter" stroke-linecap="square" stroke-miterlimit="3"/><path d=" M 683.25 680.571 L 697.392 673.5 L 683.25 666.429 Z " fill="rgb(46,46,46)" stroke="none"/><line x1="615.25" y1="480.5" x2="682.25" y2="480.5" vector-effect="non-scaling-stroke" stroke-width="2" stroke="rgb(46,46,46)" stroke-linejoin="miter" stroke-linecap="square" stroke-miterlimit="3"/><path d=" M 683.25 487.571 L 697.392 480.5 L 683.25 473.429 Z " fill="rgb(46,46,46)" stroke="none"/><mask id="_mask_JiHPTw8sTCNxsNdOO7rj8ldaOwqsx88l"><rect x="709.75" y="631" width="85" height="85" fill="white" fill-opacity="0.13" stroke="none"/></mask><rect x="709.75" y="631" width="85" height="85" transform="matrix(1,0,0,1,0,0)" fill="rgb(255,153,0)" fill-opacity="0.13"/><rect x="709.75" y="631" width="85" height="85" transform="matrix(1,0,0,1,0,0)" fill="rgb(255,153,0)" fill-opacity="0.13" mask="url(#_mask_JiHPTw8sTCNxsNdOO7rj8ldaOwqsx88l)" vector-effect="non-scaling-stroke" stroke-width="2" stroke="rgb(255,153,0)" stroke-opacity="0.26" stroke-linejoin="miter" stroke-linecap="square" stroke-miterlimit="2"/><mask id="_mask_7J9rKNoxX5dyAlJiLPFeEds48JLekWZw"><rect x="826.75" y="631" width="85" height="85" fill="white" fill-opacity="0.13" stroke="none"/></mask><rect x="826.75" y="631" width="85" height="85" transform="matrix(1,0,0,1,0,0)" fill="rgb(74,134,232)" fill-opacity="0.13"/><rect x="826.75" y="631" width="85" height="85" transform="matrix(1,0,0,1,0,0)" fill="rgb(74,134,232)" fill-opacity="0.13" mask="url(#_mask_7J9rKNoxX5dyAlJiLPFeEds48JLekWZw)" vector-effect="non-scaling-stroke" stroke-width="2" stroke="rgb(74,134,232)" stroke-opacity="0.26" stroke-linejoin="miter" stroke-linecap="square" stroke-miterlimit="2"/><path d=" M 811.373 669.354 L 811.373 673.534 L 807.35 673.534 L 807.35 674.882 L 811.373 674.882 L 811.373 679.042 L 812.73 679.042 L 812.73 674.882 L 816.734 674.882 L 816.734 673.534 L 812.73 673.534 L 812.73 669.354 L 811.373 669.354 L 811.373 669.354 Z " fill="rgb(46,46,46)"/><mask id="_mask_6yZNFSSkjiDfdMteoc991uKAfUQuUlR9"><rect x="709.75" y="438" width="85" height="85" fill="white" fill-opacity="0.13" stroke="none"/></mask><rect x="709.75" y="438" width="85" height="85" transform="matrix(1,0,0,1,0,0)" fill="rgb(255,153,0)" fill-opacity="0.13"/><rect x="709.75" y="438" width="85" height="85" transform="matrix(1,0,0,1,0,0)" fill="rgb(255,153,0)" fill-opacity="0.13" mask="url(#_mask_6yZNFSSkjiDfdMteoc991uKAfUQuUlR9)" vector-effect="non-scaling-stroke" stroke-width="2" stroke="rgb(255,153,0)" stroke-opacity="0.26" stroke-linejoin="miter" stroke-linecap="square" stroke-miterlimit="2"/><mask id="_mask_FXL287Erkf8PCNy8EFhNV5swBvglIMCw"><rect x="826.75" y="438" width="85" height="85" fill="white" fill-opacity="0.13" stroke="none"/></mask><rect x="826.75" y="438" width="85" height="85" transform="matrix(1,0,0,1,0,0)" fill="rgb(74,134,232)" fill-opacity="0.13"/><rect x="826.75" y="438" width="85" height="85" transform="matrix(1,0,0,1,0,0)" fill="rgb(74,134,232)" fill-opacity="0.13" mask="url(#_mask_FXL287Erkf8PCNy8EFhNV5swBvglIMCw)" vector-effect="non-scaling-stroke" stroke-width="2" stroke="rgb(74,134,232)" stroke-opacity="0.26" stroke-linejoin="miter" stroke-linecap="square" stroke-miterlimit="2"/><path d=" M 811.373 476.354 L 811.373 480.534 L 807.35 480.534 L 807.35 481.882 L 811.373 481.882 L 811.373 486.042 L 812.73 486.042 L 812.73 481.882 L 816.734 481.882 L 816.734 480.534 L 812.73 480.534 L 812.73 476.354 L 811.373 476.354 L 811.373 476.354 Z " fill="rgb(46,46,46)"/><line x1="810.75" y1="537.5" x2="810.75" y2="604.5" vector-effect="non-scaling-stroke" stroke-width="2" stroke="rgb(46,46,46)" stroke-linejoin="miter" stroke-linecap="square" stroke-miterlimit="3"/><path d=" M 803.679 605.5 L 810.75 619.642 L 817.821 605.5 Z " fill="rgb(46,46,46)" stroke="none"/><polygon points="882.84,472.654,869.25,464.808,855.66,472.654,855.66,488.346,869.25,496.192,882.84,488.346" fill="rgb(93,93,93)"/><mask id="_mask_04xkYBcOpLswVpueImkTI14CYjWhSsBH"><polygon points="882.84,665.654,869.25,657.808,855.66,665.654,855.66,681.346,869.25,689.192,882.84,681.346" fill="white" stroke="none"/></mask><polygon points="882.84,665.654,869.25,657.808,855.66,665.654,855.66,681.346,869.25,689.192,882.84,681.346" fill="none"/><polygon points="882.84,665.654,869.25,657.808,855.66,665.654,855.66,681.346,869.25,689.192,882.84,681.346" fill="none" mask="url(#_mask_04xkYBcOpLswVpueImkTI14CYjWhSsBH)" vector-effect="non-scaling-stroke" stroke-width="4" stroke-dasharray="4,12" stroke="rgb(93,93,93)" stroke-linejoin="miter" stroke-linecap="square" stroke-miterlimit="3"/><mask id="_mask_lj0hvoTNqRXXjaMQis4VmQZfOMz9w4bN"><rect x="399.75" y="631" width="85" height="85" fill="white" fill-opacity="0.13" stroke="none"/></mask><rect x="399.75" y="631" width="85" height="85" transform="matrix(1,0,0,1,0,0)" fill="rgb(255,153,0)" fill-opacity="0.13"/><rect x="399.75" y="631" width="85" height="85" transform="matrix(1,0,0,1,0,0)" fill="rgb(255,153,0)" fill-opacity="0.13" mask="url(#_mask_lj0hvoTNqRXXjaMQis4VmQZfOMz9w4bN)" vector-effect="non-scaling-stroke" stroke-width="2" stroke="rgb(255,153,0)" stroke-opacity="0.26" stroke-linejoin="miter" stroke-linecap="square" stroke-miterlimit="2"/><mask id="_mask_MSIMeIXgvp0n34XBEvZdf2GnNLhM1rUL"><rect x="516.75" y="631" width="85" height="85" fill="white" fill-opacity="0.13" stroke="none"/></mask><rect x="516.75" y="631" width="85" height="85" transform="matrix(1,0,0,1,0,0)" fill="rgb(74,134,232)" fill-opacity="0.13"/><rect x="516.75" y="631" width="85" height="85" transform="matrix(1,0,0,1,0,0)" fill="rgb(74,134,232)" fill-opacity="0.13" mask="url(#_mask_MSIMeIXgvp0n34XBEvZdf2GnNLhM1rUL)" vector-effect="non-scaling-stroke" stroke-width="2" stroke="rgb(74,134,232)" stroke-opacity="0.26" stroke-linejoin="miter" stroke-linecap="square" stroke-miterlimit="2"/><path d=" M 501.373 669.354 L 501.373 673.534 L 497.35 673.534 L 497.35 674.882 L 501.373 674.882 L 501.373 679.042 L 502.73 679.042 L 502.73 674.882 L 506.734 674.882 L 506.734 673.534 L 502.73 673.534 L 502.73 669.354 L 501.373 669.354 L 501.373 669.354 Z " fill="rgb(46,46,46)"/><mask id="_mask_ffZA5Ypbs3Nm2Wh6kg7agjIjIHuujMjx"><rect x="399.75" y="438" width="85" height="85" fill="white" fill-opacity="0.13" stroke="none"/></mask><rect x="399.75" y="438" width="85" height="85" transform="matrix(1,0,0,1,0,0)" fill="rgb(255,153,0)" fill-opacity="0.13"/><rect x="399.75" y="438" width="85" height="85" transform="matrix(1,0,0,1,0,0)" fill="rgb(255,153,0)" fill-opacity="0.13" mask="url(#_mask_ffZA5Ypbs3Nm2Wh6kg7agjIjIHuujMjx)" vector-effect="non-scaling-stroke" stroke-width="2" stroke="rgb(255,153,0)" stroke-opacity="0.26" stroke-linejoin="miter" stroke-linecap="square" stroke-miterlimit="2"/><mask id="_mask_j3q6jY0w6zkm24L0f4PPii9aCddp7JLb"><rect x="516.75" y="438" width="85" height="85" fill="white" fill-opacity="0.13" stroke="none"/></mask><rect x="516.75" y="438" width="85" height="85" transform="matrix(1,0,0,1,0,0)" fill="rgb(74,134,232)" fill-opacity="0.13"/><rect x="516.75" y="438" width="85" height="85" transform="matrix(1,0,0,1,0,0)" fill="rgb(74,134,232)" fill-opacity="0.13" mask="url(#_mask_j3q6jY0w6zkm24L0f4PPii9aCddp7JLb)" vector-effect="non-scaling-stroke" stroke-width="2" stroke="rgb(74,134,232)" stroke-opacity="0.26" stroke-linejoin="miter" stroke-linecap="square" stroke-miterlimit="2"/><path d=" M 501.373 476.354 L 501.373 480.534 L 497.35 480.534 L 497.35 481.882 L 501.373 481.882 L 501.373 486.042 L 502.73 486.042 L 502.73 481.882 L 506.734 481.882 L 506.734 480.534 L 502.73 480.534 L 502.73 476.354 L 501.373 476.354 L 501.373 476.354 Z " fill="rgb(46,46,46)"/><line x1="500.75" y1="535.118" x2="500.75" y2="602.118" vector-effect="non-scaling-stroke" stroke-width="2" stroke="rgb(46,46,46)" stroke-linejoin="miter" stroke-linecap="square" stroke-miterlimit="3"/><path d=" M 493.679 603.118 L 500.75 617.26 L 507.821 603.118 Z " fill="rgb(46,46,46)" stroke="none"/><polygon points="455.84,472.654,442.25,464.808,428.66,472.654,428.66,488.346,442.25,496.192,455.84,488.346" fill="rgb(93,93,93)"/><mask id="_mask_aO34BmWBFkSFkVmCGkGUYmyVcwVinWTG"><polygon points="455.84,665.654,442.25,657.808,428.66,665.654,428.66,681.346,442.25,689.192,455.84,681.346" fill="white" stroke="none"/></mask><polygon points="455.84,665.654,442.25,657.808,428.66,665.654,428.66,681.346,442.25,689.192,455.84,681.346" fill="none"/><polygon points="455.84,665.654,442.25,657.808,428.66,665.654,428.66,681.346,442.25,689.192,455.84,681.346" fill="none" mask="url(#_mask_aO34BmWBFkSFkVmCGkGUYmyVcwVinWTG)" vector-effect="non-scaling-stroke" stroke-width="4" stroke-dasharray="4,12" stroke="rgb(93,93,93)" stroke-linejoin="miter" stroke-linecap="square" stroke-miterlimit="3"/><path d=" M 662.036 466.047 L 661.113 463.524 L 657.063 463.524 L 656.153 466.047 L 654.838 466.047 L 658.53 456.379 L 659.646 456.379 L 663.345 466.047 L 662.036 466.047 L 662.036 466.047 Z  M 659.088 457.952 L 657.448 462.475 L 660.735 462.475 L 659.088 457.952 L 659.088 457.952 Z  M 667.01 461.439 L 667.01 462.442 L 663.77 462.442 L 663.77 461.439 L 667.01 461.439 L 667.01 461.439 Z  M 668.166 463.471 L 672.555 461.731 L 668.166 460.011 L 668.166 458.749 L 673.837 461.259 L 673.837 462.229 L 668.166 464.746 L 668.166 463.471 L 668.166 463.471 Z  M 678.857 466.047 L 675.504 466.047 L 675.504 456.379 L 678.664 456.379 L 678.664 456.379 Q 680.238 456.379 681.032 457.029 L 681.032 457.029 L 681.032 457.029 Q 681.825 457.68 681.825 458.955 L 681.825 458.955 L 681.825 458.955 Q 681.825 459.633 681.44 460.154 L 681.44 460.154 L 681.44 460.154 Q 681.055 460.675 680.391 460.961 L 680.391 460.961 L 680.391 460.961 Q 681.175 461.18 681.629 461.794 L 681.629 461.794 L 681.629 461.794 Q 682.084 462.408 682.084 463.258 L 682.084 463.258 L 682.084 463.258 Q 682.084 464.56 681.241 465.304 L 681.241 465.304 L 681.241 465.304 Q 680.398 466.047 678.857 466.047 L 678.857 466.047 L 678.857 466.047 Z  M 678.904 461.525 L 676.779 461.525 L 676.779 465.005 L 678.884 465.005 L 678.884 465.005 Q 679.773 465.005 680.288 464.543 L 680.288 464.543 L 680.288 464.543 Q 680.803 464.082 680.803 463.272 L 680.803 463.272 L 680.803 463.272 Q 680.803 461.525 678.904 461.525 L 678.904 461.525 L 678.904 461.525 Z  M 676.779 457.428 L 676.779 460.502 L 678.704 460.502 L 678.704 460.502 Q 679.541 460.502 680.042 460.084 L 680.042 460.084 L 680.042 460.084 Q 680.544 459.666 680.544 458.949 L 680.544 458.949 L 680.544 458.949 Q 680.544 458.152 680.079 457.79 L 680.079 457.79 L 680.079 457.79 Q 679.614 457.428 678.664 457.428 L 678.664 457.428 L 676.779 457.428 L 676.779 457.428 Z  M 626.955 463.972 L 632.961 449.753 L 634.621 449.753 L 640.275 463.972 L 626.955 463.972 L 626.955 463.972 Z  M 633.761 452.048 L 629.513 462.439 L 637.755 462.439 L 633.761 452.048 L 633.761 452.048 Z  M 652.8 456.892 L 652.8 462.107 L 652.8 462.107 Q 652.078 463.142 650.784 463.655 L 650.784 463.655 L 650.784 463.655 Q 649.49 464.167 647.771 464.167 L 647.771 464.167 L 647.771 464.167 Q 646.033 464.167 644.685 463.352 L 644.685 463.352 L 644.685 463.352 Q 643.338 462.537 642.6 461.033 L 642.6 461.033 L 642.6 461.033 Q 641.863 459.529 641.843 457.546 L 641.843 457.546 L 641.843 456.306 L 641.843 456.306 Q 641.843 453.093 643.342 451.326 L 643.342 451.326 L 643.342 451.326 Q 644.841 449.558 647.556 449.558 L 647.556 449.558 L 647.556 449.558 Q 649.783 449.558 651.14 450.696 L 651.14 450.696 L 651.14 450.696 Q 652.498 451.834 652.8 453.923 L 652.8 453.923 L 650.925 453.923 L 650.925 453.923 Q 650.398 451.101 647.566 451.101 L 647.566 451.101 L 647.566 451.101 Q 645.681 451.101 644.71 452.424 L 644.71 452.424 L 644.71 452.424 Q 643.738 453.748 643.728 456.257 L 643.728 456.257 L 643.728 457.419 L 643.728 457.419 Q 643.728 459.812 644.822 461.223 L 644.822 461.223 L 644.822 461.223 Q 645.916 462.634 647.781 462.634 L 647.781 462.634 L 647.781 462.634 Q 648.836 462.634 649.627 462.4 L 649.627 462.4 L 649.627 462.4 Q 650.418 462.166 650.935 461.609 L 650.935 461.609 L 650.935 458.416 L 647.644 458.416 L 647.644 456.892 L 652.8 456.892 L 652.8 456.892 Z " fill="rgb(46,46,46)"/><path d=" M 686.698 648.564 L 686.698 650.908 L 686.698 650.908 Q 686.698 654.082 685.614 655.625 L 685.614 655.625 L 685.614 655.625 Q 684.53 657.167 682.225 657.167 L 682.225 657.167 L 682.225 657.167 Q 679.95 657.167 678.856 655.659 L 678.856 655.659 L 678.856 655.659 Q 677.763 654.15 677.723 651.152 L 677.723 651.152 L 677.723 648.74 L 677.723 648.74 Q 677.723 645.605 678.807 644.082 L 678.807 644.082 L 678.807 644.082 Q 679.891 642.558 682.206 642.558 L 682.206 642.558 L 682.206 642.558 Q 684.501 642.558 685.585 644.028 L 685.585 644.028 L 685.585 644.028 Q 686.669 645.498 686.698 648.564 L 686.698 648.564 L 686.698 648.564 Z  M 684.891 651.396 L 684.891 648.437 L 684.891 648.437 Q 684.891 646.142 684.247 645.092 L 684.247 645.092 L 684.247 645.092 Q 683.602 644.042 682.206 644.042 L 682.206 644.042 L 682.206 644.042 Q 680.819 644.042 680.184 645.087 L 680.184 645.087 L 680.184 645.087 Q 679.55 646.132 679.53 648.3 L 679.53 648.3 L 679.53 651.191 L 679.53 651.191 Q 679.53 653.496 680.199 654.594 L 680.199 654.594 L 680.199 654.594 Q 680.868 655.693 682.225 655.693 L 682.225 655.693 L 682.225 655.693 Q 683.563 655.693 684.213 654.658 L 684.213 654.658 L 684.213 654.658 Q 684.862 653.623 684.891 651.396 L 684.891 651.396 L 684.891 651.396 Z  M 670.302 647.451 L 670.302 649.023 L 662.157 649.023 L 662.157 647.451 L 670.302 647.451 L 670.302 647.451 Z  M 670.302 651.513 L 670.302 653.076 L 662.157 653.076 L 662.157 651.513 L 670.302 651.513 L 670.302 651.513 Z  M 656.808 658.045 L 656.808 659.047 L 650.473 659.047 L 650.473 658.164 L 653.82 654.445 L 653.82 654.445 Q 654.563 653.602 654.846 653.074 L 654.846 653.074 L 654.846 653.074 Q 655.128 652.546 655.128 651.982 L 655.128 651.982 L 655.128 651.982 Q 655.128 651.225 654.67 650.74 L 654.67 650.74 L 654.67 650.74 Q 654.211 650.255 653.448 650.255 L 653.448 650.255 L 653.448 650.255 Q 652.531 650.255 652.023 650.776 L 652.023 650.776 L 652.023 650.776 Q 651.515 651.298 651.515 652.227 L 651.515 652.227 L 650.287 652.227 L 650.287 652.227 Q 650.287 650.893 651.147 650.069 L 651.147 650.069 L 651.147 650.069 Q 652.007 649.246 653.448 649.246 L 653.448 649.246 L 653.448 649.246 Q 654.796 649.246 655.579 649.953 L 655.579 649.953 L 655.579 649.953 Q 656.363 650.66 656.363 651.836 L 656.363 651.836 L 656.363 651.836 Q 656.363 653.263 654.543 655.236 L 654.543 655.236 L 651.954 658.045 L 656.808 658.045 L 656.808 658.045 Z  M 621.972 656.972 L 627.978 642.753 L 629.638 642.753 L 635.292 656.972 L 621.972 656.972 L 621.972 656.972 Z  M 628.779 645.048 L 624.53 655.439 L 632.773 655.439 L 628.779 645.048 L 628.779 645.048 Z  M 647.818 649.892 L 647.818 655.107 L 647.818 655.107 Q 647.095 656.142 645.801 656.655 L 645.801 656.655 L 645.801 656.655 Q 644.507 657.167 642.788 657.167 L 642.788 657.167 L 642.788 657.167 Q 641.05 657.167 639.702 656.352 L 639.702 656.352 L 639.702 656.352 Q 638.355 655.537 637.617 654.033 L 637.617 654.033 L 637.617 654.033 Q 636.88 652.529 636.861 650.546 L 636.861 650.546 L 636.861 649.306 L 636.861 649.306 Q 636.861 646.093 638.36 644.326 L 638.36 644.326 L 638.36 644.326 Q 639.859 642.558 642.573 642.558 L 642.573 642.558 L 642.573 642.558 Q 644.8 642.558 646.157 643.696 L 646.157 643.696 L 646.157 643.696 Q 647.515 644.834 647.818 646.923 L 647.818 646.923 L 645.943 646.923 L 645.943 646.923 Q 645.415 644.101 642.583 644.101 L 642.583 644.101 L 642.583 644.101 Q 640.698 644.101 639.727 645.424 L 639.727 645.424 L 639.727 645.424 Q 638.755 646.748 638.745 649.257 L 638.745 649.257 L 638.745 650.419 L 638.745 650.419 Q 638.745 652.812 639.839 654.223 L 639.839 654.223 L 639.839 654.223 Q 640.933 655.634 642.798 655.634 L 642.798 655.634 L 642.798 655.634 Q 643.853 655.634 644.644 655.4 L 644.644 655.4 L 644.644 655.4 Q 645.435 655.166 645.952 654.609 L 645.952 654.609 L 645.952 651.416 L 642.661 651.416 L 642.661 649.892 L 647.818 649.892 L 647.818 649.892 Z " fill="rgb(46,46,46)"/><path d=" M 481.341 569.533 L 481.341 579.248 L 480.106 579.248 L 480.106 571.06 L 477.629 571.97 L 477.629 570.854 L 481.148 569.533 L 481.341 569.533 L 481.341 569.533 Z  M 448.803 577.173 L 454.809 562.954 L 456.469 562.954 L 462.123 577.173 L 448.803 577.173 L 448.803 577.173 Z  M 455.609 565.249 L 451.361 575.64 L 459.604 575.64 L 455.609 565.249 L 455.609 565.249 Z  M 474.648 570.093 L 474.648 575.308 L 474.648 575.308 Q 473.926 576.343 472.632 576.855 L 472.632 576.855 L 472.632 576.855 Q 471.338 577.368 469.619 577.368 L 469.619 577.368 L 469.619 577.368 Q 467.881 577.368 466.533 576.553 L 466.533 576.553 L 466.533 576.553 Q 465.186 575.737 464.448 574.233 L 464.448 574.233 L 464.448 574.233 Q 463.711 572.729 463.691 570.747 L 463.691 570.747 L 463.691 569.507 L 463.691 569.507 Q 463.691 566.294 465.19 564.526 L 465.19 564.526 L 465.19 564.526 Q 466.689 562.759 469.404 562.759 L 469.404 562.759 L 469.404 562.759 Q 471.631 562.759 472.988 563.896 L 472.988 563.896 L 472.988 563.896 Q 474.346 565.034 474.648 567.124 L 474.648 567.124 L 472.773 567.124 L 472.773 567.124 Q 472.246 564.302 469.414 564.302 L 469.414 564.302 L 469.414 564.302 Q 467.529 564.302 466.558 565.625 L 466.558 565.625 L 466.558 565.625 Q 465.586 566.948 465.576 569.458 L 465.576 569.458 L 465.576 570.62 L 465.576 570.62 Q 465.576 573.013 466.67 574.424 L 466.67 574.424 L 466.67 574.424 Q 467.764 575.835 469.629 575.835 L 469.629 575.835 L 469.629 575.835 Q 470.684 575.835 471.475 575.601 L 471.475 575.601 L 471.475 575.601 Q 472.266 575.366 472.783 574.81 L 472.783 574.81 L 472.783 571.616 L 469.492 571.616 L 469.492 570.093 L 474.648 570.093 L 474.648 570.093 Z " fill="rgb(46,46,46)"/><path d=" M 789.09 577.201 L 789.09 576.198 L 790.013 576.198 L 790.013 576.198 Q 790.883 576.185 791.381 575.74 L 791.381 575.74 L 791.381 575.74 Q 791.879 575.295 791.879 574.538 L 791.879 574.538 L 791.879 574.538 Q 791.879 572.838 790.186 572.838 L 790.186 572.838 L 790.186 572.838 Q 789.389 572.838 788.914 573.293 L 788.914 573.293 L 788.914 573.293 Q 788.439 573.747 788.439 574.498 L 788.439 574.498 L 787.211 574.498 L 787.211 574.498 Q 787.211 573.349 788.051 572.589 L 788.051 572.589 L 788.051 572.589 Q 788.891 571.828 790.186 571.828 L 790.186 571.828 L 790.186 571.828 Q 791.554 571.828 792.33 572.552 L 792.33 572.552 L 792.33 572.552 Q 793.107 573.276 793.107 574.564 L 793.107 574.564 L 793.107 574.564 Q 793.107 575.195 792.699 575.786 L 792.699 575.786 L 792.699 575.786 Q 792.291 576.377 791.587 576.669 L 791.587 576.669 L 791.587 576.669 Q 792.384 576.922 792.819 577.506 L 792.819 577.506 L 792.819 577.506 Q 793.254 578.09 793.254 578.934 L 793.254 578.934 L 793.254 578.934 Q 793.254 580.235 792.404 580.999 L 792.404 580.999 L 792.404 580.999 Q 791.554 581.763 790.192 581.763 L 790.192 581.763 L 790.192 581.763 Q 788.831 581.763 787.978 581.026 L 787.978 581.026 L 787.978 581.026 Q 787.124 580.288 787.124 579.08 L 787.124 579.08 L 788.359 579.08 L 788.359 579.08 Q 788.359 579.844 788.857 580.302 L 788.857 580.302 L 788.857 580.302 Q 789.355 580.76 790.192 580.76 L 790.192 580.76 L 790.192 580.76 Q 791.082 580.76 791.554 580.295 L 791.554 580.295 L 791.554 580.295 Q 792.025 579.83 792.025 578.96 L 792.025 578.96 L 792.025 578.96 Q 792.025 578.117 791.507 577.665 L 791.507 577.665 L 791.507 577.665 Q 790.989 577.214 790.013 577.201 L 790.013 577.201 L 789.09 577.201 L 789.09 577.201 Z  M 758.803 579.555 L 764.809 565.336 L 766.469 565.336 L 772.123 579.555 L 758.803 579.555 L 758.803 579.555 Z  M 765.609 567.631 L 761.361 578.021 L 769.604 578.021 L 765.609 567.631 L 765.609 567.631 Z  M 784.648 572.475 L 784.648 577.689 L 784.648 577.689 Q 783.926 578.725 782.632 579.237 L 782.632 579.237 L 782.632 579.237 Q 781.338 579.75 779.619 579.75 L 779.619 579.75 L 779.619 579.75 Q 777.881 579.75 776.533 578.935 L 776.533 578.935 L 776.533 578.935 Q 775.186 578.119 774.448 576.615 L 774.448 576.615 L 774.448 576.615 Q 773.711 575.111 773.691 573.129 L 773.691 573.129 L 773.691 571.889 L 773.691 571.889 Q 773.691 568.676 775.19 566.908 L 775.19 566.908 L 775.19 566.908 Q 776.689 565.141 779.404 565.141 L 779.404 565.141 L 779.404 565.141 Q 781.631 565.141 782.988 566.278 L 782.988 566.278 L 782.988 566.278 Q 784.346 567.416 784.648 569.506 L 784.648 569.506 L 782.773 569.506 L 782.773 569.506 Q 782.246 566.684 779.414 566.684 L 779.414 566.684 L 779.414 566.684 Q 777.529 566.684 776.558 568.007 L 776.558 568.007 L 776.558 568.007 Q 775.586 569.33 775.576 571.84 L 775.576 571.84 L 775.576 573.002 L 775.576 573.002 Q 775.576 575.395 776.67 576.806 L 776.67 576.806 L 776.67 576.806 Q 777.764 578.217 779.629 578.217 L 779.629 578.217 L 779.629 578.217 Q 780.684 578.217 781.475 577.982 L 781.475 577.982 L 781.475 577.982 Q 782.266 577.748 782.783 577.191 L 782.783 577.191 L 782.783 573.998 L 779.492 573.998 L 779.492 572.475 L 784.648 572.475 L 784.648 572.475 Z " fill="rgb(46,46,46)"/></svg>