<?xml version="1.0" encoding="utf-8" standalone="no"?>
<!DOCTYPE svg PUBLIC "-//W3C//DTD SVG 1.1//EN"
  "http://www.w3.org/Graphics/SVG/1.1/DTD/svg11.dtd">
<svg xmlns:xlink="http://www.w3.org/1999/xlink" width="288pt" height="288pt" viewBox="0 0 288 288" xmlns="http://www.w3.org/2000/svg" version="1.1">
 <metadata>
  <rdf:RDF xmlns:dc="http://purl.org/dc/elements/1.1/" xmlns:cc="http://creativecommons.org/ns#" xmlns:rdf="http://www.w3.org/1999/02/22-rdf-syntax-ns#">
   <cc:Work>
    <dc:type rdf:resource="http://purl.org/dc/dcmitype/StillImage"/>
    <dc:date>2024-01-16T07:38:02.650012</dc:date>
    <dc:format>image/svg+xml</dc:format>
    <dc:creator>
     <cc:Agent>
      <dc:title>Matplotlib v3.8.2, https://matplotlib.org/</dc:title>
     </cc:Agent>
    </dc:creator>
   </cc:Work>
  </rdf:RDF>
 </metadata>
 <defs>
  <style type="text/css">*{stroke-linejoin: round; stroke-linecap: butt}</style>
 </defs>
 <g id="figure_1">
  <g id="patch_1">
   <path d="M 0 288
L 288 288
L 288 0
L 0 0
z
" style="fill: #ffffff"/>
  </g>
  <g id="axes_1">
   <g id="patch_2">
    <path d="M 46.595 243.3625
L 277.2 243.3625
L 277.2 12.7575
L 46.595 12.7575
z
" style="fill: #ffffff"/>
   </g>
   <g id="line2d_1">
    <path d="M 46.595 243.3625
L 277.2 12.7575
" clip-path="url(#p1619d7fc66)" style="fill: none; stroke: #000000; stroke-opacity: 0.25; stroke-width: 1.5; stroke-linecap: square"/>
   </g>
   <g id="matplotlib.axis_1">
    <g id="xtick_1">
     <g id="line2d_2">
      <defs>
       <path id="m650f452043" d="M 0 0
L 0 3.5
" style="stroke: #000000; stroke-width: 0.8"/>
      </defs>
      <g>
       <use xlink:href="#m650f452043" x="70.662083" y="243.3625" style="stroke: #000000; stroke-width: 0.8"/>
      </g>
     </g>
     <g id="text_1">
      <!-- −6 -->
      <g transform="translate(63.290989 257.960938) scale(0.1 -0.1)">
       <defs>
        <path id="DejaVuSans-2212" d="M 678 2272
L 4684 2272
L 4684 1741
L 678 1741
L 678 2272
z
" transform="scale(0.015625)"/>
        <path id="DejaVuSans-36" d="M 2113 2584
Q 1688 2584 1439 2293
Q 1191 2003 1191 1497
Q 1191 994 1439 701
Q 1688 409 2113 409
Q 2538 409 2786 701
Q 3034 994 3034 1497
Q 3034 2003 2786 2293
Q 2538 2584 2113 2584
z
M 3366 4563
L 3366 3988
Q 3128 4100 2886 4159
Q 2644 4219 2406 4219
Q 1781 4219 1451 3797
Q 1122 3375 1075 2522
Q 1259 2794 1537 2939
Q 1816 3084 2150 3084
Q 2853 3084 3261 2657
Q 3669 2231 3669 1497
Q 3669 778 3244 343
Q 2819 -91 2113 -91
Q 1303 -91 875 529
Q 447 1150 447 2328
Q 447 3434 972 4092
Q 1497 4750 2381 4750
Q 2619 4750 2861 4703
Q 3103 4656 3366 4563
z
" transform="scale(0.015625)"/>
       </defs>
       <use xlink:href="#DejaVuSans-2212"/>
       <use xlink:href="#DejaVuSans-36" x="83.789062"/>
      </g>
     </g>
    </g>
    <g id="xtick_2">
     <g id="line2d_3">
      <g>
       <use xlink:href="#m650f452043" x="116.874303" y="243.3625" style="stroke: #000000; stroke-width: 0.8"/>
      </g>
     </g>
     <g id="text_2">
      <!-- −4 -->
      <g transform="translate(109.503209 257.960938) scale(0.1 -0.1)">
       <defs>
        <path id="DejaVuSans-34" d="M 2419 4116
L 825 1625
L 2419 1625
L 2419 4116
z
M 2253 4666
L 3047 4666
L 3047 1625
L 3713 1625
L 3713 1100
L 3047 1100
L 3047 0
L 2419 0
L 2419 1100
L 313 1100
L 313 1709
L 2253 4666
z
" transform="scale(0.015625)"/>
       </defs>
       <use xlink:href="#DejaVuSans-2212"/>
       <use xlink:href="#DejaVuSans-34" x="83.789062"/>
      </g>
     </g>
    </g>
    <g id="xtick_3">
     <g id="line2d_4">
      <g>
       <use xlink:href="#m650f452043" x="163.086523" y="243.3625" style="stroke: #000000; stroke-width: 0.8"/>
      </g>
     </g>
     <g id="text_3">
      <!-- −2 -->
      <g transform="translate(155.715429 257.960938) scale(0.1 -0.1)">
       <defs>
        <path id="DejaVuSans-32" d="M 1228 531
L 3431 531
L 3431 0
L 469 0
L 469 531
Q 828 903 1448 1529
Q 2069 2156 2228 2338
Q 2531 2678 2651 2914
Q 2772 3150 2772 3378
Q 2772 3750 2511 3984
Q 2250 4219 1831 4219
Q 1534 4219 1204 4116
Q 875 4013 500 3803
L 500 4441
Q 881 4594 1212 4672
Q 1544 4750 1819 4750
Q 2544 4750 2975 4387
Q 3406 4025 3406 3419
Q 3406 3131 3298 2873
Q 3191 2616 2906 2266
Q 2828 2175 2409 1742
Q 1991 1309 1228 531
z
" transform="scale(0.015625)"/>
       </defs>
       <use xlink:href="#DejaVuSans-2212"/>
       <use xlink:href="#DejaVuSans-32" x="83.789062"/>
      </g>
     </g>
    </g>
    <g id="xtick_4">
     <g id="line2d_5">
      <g>
       <use xlink:href="#m650f452043" x="209.298743" y="243.3625" style="stroke: #000000; stroke-width: 0.8"/>
      </g>
     </g>
     <g id="text_4">
      <!-- 0 -->
      <g transform="translate(206.117493 257.960938) scale(0.1 -0.1)">
       <defs>
        <path id="DejaVuSans-30" d="M 2034 4250
Q 1547 4250 1301 3770
Q 1056 3291 1056 2328
Q 1056 1369 1301 889
Q 1547 409 2034 409
Q 2525 409 2770 889
Q 3016 1369 3016 2328
Q 3016 3291 2770 3770
Q 2525 4250 2034 4250
z
M 2034 4750
Q 2819 4750 3233 4129
Q 3647 3509 3647 2328
Q 3647 1150 3233 529
Q 2819 -91 2034 -91
Q 1250 -91 836 529
Q 422 1150 422 2328
Q 422 3509 836 4129
Q 1250 4750 2034 4750
z
" transform="scale(0.015625)"/>
       </defs>
       <use xlink:href="#DejaVuSans-30"/>
      </g>
     </g>
    </g>
    <g id="xtick_5">
     <g id="line2d_6">
      <g>
       <use xlink:href="#m650f452043" x="255.510963" y="243.3625" style="stroke: #000000; stroke-width: 0.8"/>
      </g>
     </g>
     <g id="text_5">
      <!-- 2 -->
      <g transform="translate(252.329713 257.960938) scale(0.1 -0.1)">
       <use xlink:href="#DejaVuSans-32"/>
      </g>
     </g>
    </g>
    <g id="text_6">
     <!-- Reference $\Delta G$ [kcal/mol] -->
     <g transform="translate(100.8975 271.639063) scale(0.1 -0.1)">
      <defs>
       <path id="DejaVuSans-52" d="M 2841 2188
Q 3044 2119 3236 1894
Q 3428 1669 3622 1275
L 4263 0
L 3584 0
L 2988 1197
Q 2756 1666 2539 1819
Q 2322 1972 1947 1972
L 1259 1972
L 1259 0
L 628 0
L 628 4666
L 2053 4666
Q 2853 4666 3247 4331
Q 3641 3997 3641 3322
Q 3641 2881 3436 2590
Q 3231 2300 2841 2188
z
M 1259 4147
L 1259 2491
L 2053 2491
Q 2509 2491 2742 2702
Q 2975 2913 2975 3322
Q 2975 3731 2742 3939
Q 2509 4147 2053 4147
L 1259 4147
z
" transform="scale(0.015625)"/>
       <path id="DejaVuSans-65" d="M 3597 1894
L 3597 1613
L 953 1613
Q 991 1019 1311 708
Q 1631 397 2203 397
Q 2534 397 2845 478
Q 3156 559 3463 722
L 3463 178
Q 3153 47 2828 -22
Q 2503 -91 2169 -91
Q 1331 -91 842 396
Q 353 884 353 1716
Q 353 2575 817 3079
Q 1281 3584 2069 3584
Q 2775 3584 3186 3129
Q 3597 2675 3597 1894
z
M 3022 2063
Q 3016 2534 2758 2815
Q 2500 3097 2075 3097
Q 1594 3097 1305 2825
Q 1016 2553 972 2059
L 3022 2063
z
" transform="scale(0.015625)"/>
       <path id="DejaVuSans-66" d="M 2375 4863
L 2375 4384
L 1825 4384
Q 1516 4384 1395 4259
Q 1275 4134 1275 3809
L 1275 3500
L 2222 3500
L 2222 3053
L 1275 3053
L 1275 0
L 697 0
L 697 3053
L 147 3053
L 147 3500
L 697 3500
L 697 3744
Q 697 4328 969 4595
Q 1241 4863 1831 4863
L 2375 4863
z
" transform="scale(0.015625)"/>
       <path id="DejaVuSans-72" d="M 2631 2963
Q 2534 3019 2420 3045
Q 2306 3072 2169 3072
Q 1681 3072 1420 2755
Q 1159 2438 1159 1844
L 1159 0
L 581 0
L 581 3500
L 1159 3500
L 1159 2956
Q 1341 3275 1631 3429
Q 1922 3584 2338 3584
Q 2397 3584 2469 3576
Q 2541 3569 2628 3553
L 2631 2963
z
" transform="scale(0.015625)"/>
       <path id="DejaVuSans-6e" d="M 3513 2113
L 3513 0
L 2938 0
L 2938 2094
Q 2938 2591 2744 2837
Q 2550 3084 2163 3084
Q 1697 3084 1428 2787
Q 1159 2491 1159 1978
L 1159 0
L 581 0
L 581 3500
L 1159 3500
L 1159 2956
Q 1366 3272 1645 3428
Q 1925 3584 2291 3584
Q 2894 3584 3203 3211
Q 3513 2838 3513 2113
z
" transform="scale(0.015625)"/>
       <path id="DejaVuSans-63" d="M 3122 3366
L 3122 2828
Q 2878 2963 2633 3030
Q 2388 3097 2138 3097
Q 1578 3097 1268 2742
Q 959 2388 959 1747
Q 959 1106 1268 751
Q 1578 397 2138 397
Q 2388 397 2633 464
Q 2878 531 3122 666
L 3122 134
Q 2881 22 2623 -34
Q 2366 -91 2075 -91
Q 1284 -91 818 406
Q 353 903 353 1747
Q 353 2603 823 3093
Q 1294 3584 2113 3584
Q 2378 3584 2631 3529
Q 2884 3475 3122 3366
z
" transform="scale(0.015625)"/>
       <path id="DejaVuSans-20" transform="scale(0.015625)"/>
       <path id="DejaVuSans-394" d="M 2188 4044
L 906 525
L 3472 525
L 2188 4044
z
M 50 0
L 1831 4666
L 2547 4666
L 4325 0
L 50 0
z
" transform="scale(0.015625)"/>
       <path id="DejaVuSans-Oblique-47" d="M 3494 697
L 3738 1919
L 2700 1919
L 2797 2438
L 4453 2438
L 4050 384
Q 3634 156 3143 32
Q 2653 -91 2156 -91
Q 1278 -91 783 396
Q 288 884 288 1753
Q 288 2475 589 3126
Q 891 3778 1422 4213
Q 1756 4484 2153 4617
Q 2550 4750 3034 4750
Q 3472 4750 3873 4639
Q 4275 4528 4641 4306
L 4513 3634
Q 4231 3928 3853 4083
Q 3475 4238 3047 4238
Q 2550 4238 2172 4048
Q 1794 3859 1497 3463
Q 1244 3125 1098 2667
Q 953 2209 953 1734
Q 953 1081 1287 751
Q 1622 422 2284 422
Q 2616 422 2925 492
Q 3234 563 3494 697
z
" transform="scale(0.015625)"/>
       <path id="DejaVuSans-5b" d="M 550 4863
L 1875 4863
L 1875 4416
L 1125 4416
L 1125 -397
L 1875 -397
L 1875 -844
L 550 -844
L 550 4863
z
" transform="scale(0.015625)"/>
       <path id="DejaVuSans-6b" d="M 581 4863
L 1159 4863
L 1159 1991
L 2875 3500
L 3609 3500
L 1753 1863
L 3688 0
L 2938 0
L 1159 1709
L 1159 0
L 581 0
L 581 4863
z
" transform="scale(0.015625)"/>
       <path id="DejaVuSans-61" d="M 2194 1759
Q 1497 1759 1228 1600
Q 959 1441 959 1056
Q 959 750 1161 570
Q 1363 391 1709 391
Q 2188 391 2477 730
Q 2766 1069 2766 1631
L 2766 1759
L 2194 1759
z
M 3341 1997
L 3341 0
L 2766 0
L 2766 531
Q 2569 213 2275 61
Q 1981 -91 1556 -91
Q 1019 -91 701 211
Q 384 513 384 1019
Q 384 1609 779 1909
Q 1175 2209 1959 2209
L 2766 2209
L 2766 2266
Q 2766 2663 2505 2880
Q 2244 3097 1772 3097
Q 1472 3097 1187 3025
Q 903 2953 641 2809
L 641 3341
Q 956 3463 1253 3523
Q 1550 3584 1831 3584
Q 2591 3584 2966 3190
Q 3341 2797 3341 1997
z
" transform="scale(0.015625)"/>
       <path id="DejaVuSans-6c" d="M 603 4863
L 1178 4863
L 1178 0
L 603 0
L 603 4863
z
" transform="scale(0.015625)"/>
       <path id="DejaVuSans-2f" d="M 1625 4666
L 2156 4666
L 531 -594
L 0 -594
L 1625 4666
z
" transform="scale(0.015625)"/>
       <path id="DejaVuSans-6d" d="M 3328 2828
Q 3544 3216 3844 3400
Q 4144 3584 4550 3584
Q 5097 3584 5394 3201
Q 5691 2819 5691 2113
L 5691 0
L 5113 0
L 5113 2094
Q 5113 2597 4934 2840
Q 4756 3084 4391 3084
Q 3944 3084 3684 2787
Q 3425 2491 3425 1978
L 3425 0
L 2847 0
L 2847 2094
Q 2847 2600 2669 2842
Q 2491 3084 2119 3084
Q 1678 3084 1418 2786
Q 1159 2488 1159 1978
L 1159 0
L 581 0
L 581 3500
L 1159 3500
L 1159 2956
Q 1356 3278 1631 3431
Q 1906 3584 2284 3584
Q 2666 3584 2933 3390
Q 3200 3197 3328 2828
z
" transform="scale(0.015625)"/>
       <path id="DejaVuSans-6f" d="M 1959 3097
Q 1497 3097 1228 2736
Q 959 2375 959 1747
Q 959 1119 1226 758
Q 1494 397 1959 397
Q 2419 397 2687 759
Q 2956 1122 2956 1747
Q 2956 2369 2687 2733
Q 2419 3097 1959 3097
z
M 1959 3584
Q 2709 3584 3137 3096
Q 3566 2609 3566 1747
Q 3566 888 3137 398
Q 2709 -91 1959 -91
Q 1206 -91 779 398
Q 353 888 353 1747
Q 353 2609 779 3096
Q 1206 3584 1959 3584
z
" transform="scale(0.015625)"/>
       <path id="DejaVuSans-5d" d="M 1947 4863
L 1947 -844
L 622 -844
L 622 -397
L 1369 -397
L 1369 4416
L 622 4416
L 622 4863
L 1947 4863
z
" transform="scale(0.015625)"/>
      </defs>
      <use xlink:href="#DejaVuSans-52" transform="translate(0 0.015625)"/>
      <use xlink:href="#DejaVuSans-65" transform="translate(69.482422 0.015625)"/>
      <use xlink:href="#DejaVuSans-66" transform="translate(131.005859 0.015625)"/>
      <use xlink:href="#DejaVuSans-65" transform="translate(166.210938 0.015625)"/>
      <use xlink:href="#DejaVuSans-72" transform="translate(227.734375 0.015625)"/>
      <use xlink:href="#DejaVuSans-65" transform="translate(268.847656 0.015625)"/>
      <use xlink:href="#DejaVuSans-6e" transform="translate(330.371094 0.015625)"/>
      <use xlink:href="#DejaVuSans-63" transform="translate(393.75 0.015625)"/>
      <use xlink:href="#DejaVuSans-65" transform="translate(448.730469 0.015625)"/>
      <use xlink:href="#DejaVuSans-20" transform="translate(510.253906 0.015625)"/>
      <use xlink:href="#DejaVuSans-394" transform="translate(542.041016 0.015625)"/>
      <use xlink:href="#DejaVuSans-Oblique-47" transform="translate(610.449219 0.015625)"/>
      <use xlink:href="#DejaVuSans-20" transform="translate(687.939453 0.015625)"/>
      <use xlink:href="#DejaVuSans-5b" transform="translate(719.726562 0.015625)"/>
      <use xlink:href="#DejaVuSans-6b" transform="translate(758.740234 0.015625)"/>
      <use xlink:href="#DejaVuSans-63" transform="translate(816.650391 0.015625)"/>
      <use xlink:href="#DejaVuSans-61" transform="translate(871.630859 0.015625)"/>
      <use xlink:href="#DejaVuSans-6c" transform="translate(932.910156 0.015625)"/>
      <use xlink:href="#DejaVuSans-2f" transform="translate(960.693359 0.015625)"/>
      <use xlink:href="#DejaVuSans-6d" transform="translate(994.384766 0.015625)"/>
      <use xlink:href="#DejaVuSans-6f" transform="translate(1091.796875 0.015625)"/>
      <use xlink:href="#DejaVuSans-6c" transform="translate(1152.978516 0.015625)"/>
      <use xlink:href="#DejaVuSans-5d" transform="translate(1180.761719 0.015625)"/>
     </g>
    </g>
   </g>
   <g id="matplotlib.axis_2">
    <g id="ytick_1">
     <g id="line2d_7">
      <defs>
       <path id="m0b8044900f" d="M 0 0
L -3.5 0
" style="stroke: #000000; stroke-width: 0.8"/>
      </defs>
      <g>
       <use xlink:href="#m0b8044900f" x="46.595" y="219.295417" style="stroke: #000000; stroke-width: 0.8"/>
      </g>
     </g>
     <g id="text_7">
      <!-- −6 -->
      <g transform="translate(24.852813 223.094636) scale(0.1 -0.1)">
       <use xlink:href="#DejaVuSans-2212"/>
       <use xlink:href="#DejaVuSans-36" x="83.789062"/>
      </g>
     </g>
    </g>
    <g id="ytick_2">
     <g id="line2d_8">
      <g>
       <use xlink:href="#m0b8044900f" x="46.595" y="173.083197" style="stroke: #000000; stroke-width: 0.8"/>
      </g>
     </g>
     <g id="text_8">
      <!-- −4 -->
      <g transform="translate(24.852813 176.882416) scale(0.1 -0.1)">
       <use xlink:href="#DejaVuSans-2212"/>
       <use xlink:href="#DejaVuSans-34" x="83.789062"/>
      </g>
     </g>
    </g>
    <g id="ytick_3">
     <g id="line2d_9">
      <g>
       <use xlink:href="#m0b8044900f" x="46.595" y="126.870977" style="stroke: #000000; stroke-width: 0.8"/>
      </g>
     </g>
     <g id="text_9">
      <!-- −2 -->
      <g transform="translate(24.852813 130.670196) scale(0.1 -0.1)">
       <use xlink:href="#DejaVuSans-2212"/>
       <use xlink:href="#DejaVuSans-32" x="83.789062"/>
      </g>
     </g>
    </g>
    <g id="ytick_4">
     <g id="line2d_10">
      <g>
       <use xlink:href="#m0b8044900f" x="46.595" y="80.658757" style="stroke: #000000; stroke-width: 0.8"/>
      </g>
     </g>
     <g id="text_10">
      <!-- 0 -->
      <g transform="translate(33.2325 84.457976) scale(0.1 -0.1)">
       <use xlink:href="#DejaVuSans-30"/>
      </g>
     </g>
    </g>
    <g id="ytick_5">
     <g id="line2d_11">
      <g>
       <use xlink:href="#m0b8044900f" x="46.595" y="34.446537" style="stroke: #000000; stroke-width: 0.8"/>
      </g>
     </g>
     <g id="text_11">
      <!-- 2 -->
      <g transform="translate(33.2325 38.245756) scale(0.1 -0.1)">
       <use xlink:href="#DejaVuSans-32"/>
      </g>
     </g>
    </g>
    <g id="text_12">
     <!-- Estimated $\Delta G$ [kcal/mol] -->
     <g transform="translate(18.773125 188.81) rotate(-90) scale(0.1 -0.1)">
      <defs>
       <path id="DejaVuSans-45" d="M 628 4666
L 3578 4666
L 3578 4134
L 1259 4134
L 1259 2753
L 3481 2753
L 3481 2222
L 1259 2222
L 1259 531
L 3634 531
L 3634 0
L 628 0
L 628 4666
z
" transform="scale(0.015625)"/>
       <path id="DejaVuSans-73" d="M 2834 3397
L 2834 2853
Q 2591 2978 2328 3040
Q 2066 3103 1784 3103
Q 1356 3103 1142 2972
Q 928 2841 928 2578
Q 928 2378 1081 2264
Q 1234 2150 1697 2047
L 1894 2003
Q 2506 1872 2764 1633
Q 3022 1394 3022 966
Q 3022 478 2636 193
Q 2250 -91 1575 -91
Q 1294 -91 989 -36
Q 684 19 347 128
L 347 722
Q 666 556 975 473
Q 1284 391 1588 391
Q 1994 391 2212 530
Q 2431 669 2431 922
Q 2431 1156 2273 1281
Q 2116 1406 1581 1522
L 1381 1569
Q 847 1681 609 1914
Q 372 2147 372 2553
Q 372 3047 722 3315
Q 1072 3584 1716 3584
Q 2034 3584 2315 3537
Q 2597 3491 2834 3397
z
" transform="scale(0.015625)"/>
       <path id="DejaVuSans-74" d="M 1172 4494
L 1172 3500
L 2356 3500
L 2356 3053
L 1172 3053
L 1172 1153
Q 1172 725 1289 603
Q 1406 481 1766 481
L 2356 481
L 2356 0
L 1766 0
Q 1100 0 847 248
Q 594 497 594 1153
L 594 3053
L 172 3053
L 172 3500
L 594 3500
L 594 4494
L 1172 4494
z
" transform="scale(0.015625)"/>
       <path id="DejaVuSans-69" d="M 603 3500
L 1178 3500
L 1178 0
L 603 0
L 603 3500
z
M 603 4863
L 1178 4863
L 1178 4134
L 603 4134
L 603 4863
z
" transform="scale(0.015625)"/>
       <path id="DejaVuSans-64" d="M 2906 2969
L 2906 4863
L 3481 4863
L 3481 0
L 2906 0
L 2906 525
Q 2725 213 2448 61
Q 2172 -91 1784 -91
Q 1150 -91 751 415
Q 353 922 353 1747
Q 353 2572 751 3078
Q 1150 3584 1784 3584
Q 2172 3584 2448 3432
Q 2725 3281 2906 2969
z
M 947 1747
Q 947 1113 1208 752
Q 1469 391 1925 391
Q 2381 391 2643 752
Q 2906 1113 2906 1747
Q 2906 2381 2643 2742
Q 2381 3103 1925 3103
Q 1469 3103 1208 2742
Q 947 2381 947 1747
z
" transform="scale(0.015625)"/>
      </defs>
      <use xlink:href="#DejaVuSans-45" transform="translate(0 0.015625)"/>
      <use xlink:href="#DejaVuSans-73" transform="translate(63.183594 0.015625)"/>
      <use xlink:href="#DejaVuSans-74" transform="translate(115.283203 0.015625)"/>
      <use xlink:href="#DejaVuSans-69" transform="translate(154.492188 0.015625)"/>
      <use xlink:href="#DejaVuSans-6d" transform="translate(182.275391 0.015625)"/>
      <use xlink:href="#DejaVuSans-61" transform="translate(279.6875 0.015625)"/>
      <use xlink:href="#DejaVuSans-74" transform="translate(340.966797 0.015625)"/>
      <use xlink:href="#DejaVuSans-65" transform="translate(380.175781 0.015625)"/>
      <use xlink:href="#DejaVuSans-64" transform="translate(441.699219 0.015625)"/>
      <use xlink:href="#DejaVuSans-20" transform="translate(505.175781 0.015625)"/>
      <use xlink:href="#DejaVuSans-394" transform="translate(536.962891 0.015625)"/>
      <use xlink:href="#DejaVuSans-Oblique-47" transform="translate(605.371094 0.015625)"/>
      <use xlink:href="#DejaVuSans-20" transform="translate(682.861328 0.015625)"/>
      <use xlink:href="#DejaVuSans-5b" transform="translate(714.648438 0.015625)"/>
      <use xlink:href="#DejaVuSans-6b" transform="translate(753.662109 0.015625)"/>
      <use xlink:href="#DejaVuSans-63" transform="translate(811.572266 0.015625)"/>
      <use xlink:href="#DejaVuSans-61" transform="translate(866.552734 0.015625)"/>
      <use xlink:href="#DejaVuSans-6c" transform="translate(927.832031 0.015625)"/>
      <use xlink:href="#DejaVuSans-2f" transform="translate(955.615234 0.015625)"/>
      <use xlink:href="#DejaVuSans-6d" transform="translate(989.306641 0.015625)"/>
      <use xlink:href="#DejaVuSans-6f" transform="translate(1086.71875 0.015625)"/>
      <use xlink:href="#DejaVuSans-6c" transform="translate(1147.900391 0.015625)"/>
      <use xlink:href="#DejaVuSans-5d" transform="translate(1175.683594 0.015625)"/>
     </g>
    </g>
   </g>
   <g id="LineCollection_1">
    <path d="M 57.953722 232.815358
L 58.415844 232.815358
" clip-path="url(#p1619d7fc66)" style="fill: none; stroke: #1f77b4; stroke-width: 1.5"/>
    <path d="M 265.44659 24.413645
L 265.908712 24.413645
" clip-path="url(#p1619d7fc66)" style="fill: none; stroke: #1f77b4; stroke-width: 1.5"/>
    <path d="M 127.965236 161.398602
L 128.427358 161.398602
" clip-path="url(#p1619d7fc66)" style="fill: none; stroke: #1f77b4; stroke-width: 1.5"/>
    <path d="M 192.431283 99.439202
L 192.893405 99.439202
" clip-path="url(#p1619d7fc66)" style="fill: none; stroke: #1f77b4; stroke-width: 1.5"/>
   </g>
   <g id="LineCollection_2">
    <path d="M 58.184783 232.880455
L 58.184783 232.750261
" clip-path="url(#p1619d7fc66)" style="fill: none; stroke: #1f77b4; stroke-width: 1.5"/>
    <path d="M 265.677651 25.059687
L 265.677651 23.767603
" clip-path="url(#p1619d7fc66)" style="fill: none; stroke: #1f77b4; stroke-width: 1.5"/>
    <path d="M 128.196297 161.807397
L 128.196297 160.989808
" clip-path="url(#p1619d7fc66)" style="fill: none; stroke: #1f77b4; stroke-width: 1.5"/>
    <path d="M 192.662344 101.248743
L 192.662344 97.629661
" clip-path="url(#p1619d7fc66)" style="fill: none; stroke: #1f77b4; stroke-width: 1.5"/>
   </g>
   <g id="LineCollection_3">
    <path d="M 57.953722 229.097291
L 58.415844 229.097291
" clip-path="url(#p1619d7fc66)" style="fill: none; stroke: #ff7f0e; stroke-width: 1.5"/>
    <path d="M 265.44659 23.858297
L 265.908712 23.858297
" clip-path="url(#p1619d7fc66)" style="fill: none; stroke: #ff7f0e; stroke-width: 1.5"/>
    <path d="M 127.965236 162.985311
L 128.427358 162.985311
" clip-path="url(#p1619d7fc66)" style="fill: none; stroke: #ff7f0e; stroke-width: 1.5"/>
    <path d="M 192.431283 97.983217
L 192.893405 97.983217
" clip-path="url(#p1619d7fc66)" style="fill: none; stroke: #ff7f0e; stroke-width: 1.5"/>
   </g>
   <g id="LineCollection_4">
    <path d="M 58.184783 232.257411
L 58.184783 225.93717
" clip-path="url(#p1619d7fc66)" style="fill: none; stroke: #ff7f0e; stroke-width: 1.5"/>
    <path d="M 265.677651 24.477048
L 265.677651 23.239545
" clip-path="url(#p1619d7fc66)" style="fill: none; stroke: #ff7f0e; stroke-width: 1.5"/>
    <path d="M 128.196297 165.002078
L 128.196297 160.968543
" clip-path="url(#p1619d7fc66)" style="fill: none; stroke: #ff7f0e; stroke-width: 1.5"/>
    <path d="M 192.662344 99.444688
L 192.662344 96.521746
" clip-path="url(#p1619d7fc66)" style="fill: none; stroke: #ff7f0e; stroke-width: 1.5"/>
   </g>
   <g id="line2d_12">
    <defs>
     <path id="mb6a6cde896" d="M -3 3
L 3 -3
M -3 -3
L 3 3
" style="stroke: #1f77b4"/>
    </defs>
    <g clip-path="url(#p1619d7fc66)">
     <use xlink:href="#mb6a6cde896" x="58.184783" y="232.815358" style="fill: #1f77b4; stroke: #1f77b4"/>
     <use xlink:href="#mb6a6cde896" x="265.677651" y="24.413645" style="fill: #1f77b4; stroke: #1f77b4"/>
     <use xlink:href="#mb6a6cde896" x="128.196297" y="161.398602" style="fill: #1f77b4; stroke: #1f77b4"/>
     <use xlink:href="#mb6a6cde896" x="192.662344" y="99.439202" style="fill: #1f77b4; stroke: #1f77b4"/>
    </g>
   </g>
   <g id="line2d_13">
    <defs>
     <path id="m1f7174e461" d="M -3 3
L 3 -3
M -3 -3
L 3 3
" style="stroke: #ff7f0e"/>
    </defs>
    <g clip-path="url(#p1619d7fc66)">
     <use xlink:href="#m1f7174e461" x="58.184783" y="229.097291" style="fill: #ff7f0e; stroke: #ff7f0e"/>
     <use xlink:href="#m1f7174e461" x="265.677651" y="23.858297" style="fill: #ff7f0e; stroke: #ff7f0e"/>
     <use xlink:href="#m1f7174e461" x="128.196297" y="162.985311" style="fill: #ff7f0e; stroke: #ff7f0e"/>
     <use xlink:href="#m1f7174e461" x="192.662344" y="97.983217" style="fill: #ff7f0e; stroke: #ff7f0e"/>
    </g>
   </g>
   <g id="patch_3">
    <path d="M 46.595 243.3625
L 46.595 12.7575
" style="fill: none; stroke: #000000; stroke-width: 0.8; stroke-linejoin: miter; stroke-linecap: square"/>
   </g>
   <g id="patch_4">
    <path d="M 277.2 243.3625
L 277.2 12.7575
" style="fill: none; stroke: #000000; stroke-width: 0.8; stroke-linejoin: miter; stroke-linecap: square"/>
   </g>
   <g id="patch_5">
    <path d="M 46.595 243.3625
L 277.2 243.3625
" style="fill: none; stroke: #000000; stroke-width: 0.8; stroke-linejoin: miter; stroke-linecap: square"/>
   </g>
   <g id="patch_6">
    <path d="M 46.595 12.7575
L 277.2 12.7575
" style="fill: none; stroke: #000000; stroke-width: 0.8; stroke-linejoin: miter; stroke-linecap: square"/>
   </g>
   <g id="legend_1">
    <g id="patch_7">
     <path d="M 53.595 50.11375
L 104.434063 50.11375
Q 106.434063 50.11375 106.434063 48.11375
L 106.434063 19.7575
Q 106.434063 17.7575 104.434063 17.7575
L 53.595 17.7575
Q 51.595 17.7575 51.595 19.7575
L 51.595 48.11375
Q 51.595 50.11375 53.595 50.11375
z
" style="fill: #ffffff; opacity: 0.8; stroke: #cccccc; stroke-linejoin: miter"/>
    </g>
    <g id="LineCollection_5">
     <path d="M 60.595 25.855937
L 70.595 25.855937
" style="fill: none; stroke: #1f77b4; stroke-width: 1.5"/>
    </g>
    <g id="LineCollection_6">
     <path d="M 65.595 30.855937
L 65.595 20.855937
" style="fill: none; stroke: #1f77b4; stroke-width: 1.5"/>
    </g>
    <g id="line2d_14"/>
    <g id="line2d_15">
     <g>
      <use xlink:href="#mb6a6cde896" x="65.595" y="25.855937" style="fill: #1f77b4; stroke: #1f77b4"/>
     </g>
    </g>
    <g id="text_13">
     <!-- eq -->
     <g transform="translate(83.595 29.355937) scale(0.1 -0.1)">
      <defs>
       <path id="DejaVuSans-71" d="M 947 1747
Q 947 1113 1208 752
Q 1469 391 1925 391
Q 2381 391 2643 752
Q 2906 1113 2906 1747
Q 2906 2381 2643 2742
Q 2381 3103 1925 3103
Q 1469 3103 1208 2742
Q 947 2381 947 1747
z
M 2906 525
Q 2725 213 2448 61
Q 2172 -91 1784 -91
Q 1150 -91 751 415
Q 353 922 353 1747
Q 353 2572 751 3078
Q 1150 3584 1784 3584
Q 2172 3584 2448 3432
Q 2725 3281 2906 2969
L 2906 3500
L 3481 3500
L 3481 -1331
L 2906 -1331
L 2906 525
z
" transform="scale(0.015625)"/>
      </defs>
      <use xlink:href="#DejaVuSans-65"/>
      <use xlink:href="#DejaVuSans-71" x="61.523438"/>
     </g>
    </g>
    <g id="LineCollection_7">
     <path d="M 60.595 40.534062
L 70.595 40.534062
" style="fill: none; stroke: #ff7f0e; stroke-width: 1.5"/>
    </g>
    <g id="LineCollection_8">
     <path d="M 65.595 45.534062
L 65.595 35.534062
" style="fill: none; stroke: #ff7f0e; stroke-width: 1.5"/>
    </g>
    <g id="line2d_16"/>
    <g id="line2d_17">
     <g>
      <use xlink:href="#m1f7174e461" x="65.595" y="40.534062" style="fill: #ff7f0e; stroke: #ff7f0e"/>
     </g>
    </g>
    <g id="text_14">
     <!-- neq -->
     <g transform="translate(83.595 44.034062) scale(0.1 -0.1)">
      <use xlink:href="#DejaVuSans-6e"/>
      <use xlink:href="#DejaVuSans-65" x="63.378906"/>
      <use xlink:href="#DejaVuSans-71" x="124.902344"/>
     </g>
    </g>
   </g>
  </g>
 </g>
 <defs>
  <clipPath id="p1619d7fc66">
   <rect x="46.595" y="12.7575" width="230.605" height="230.605"/>
  </clipPath>
 </defs>
</svg>
